<?xml version="1.0" encoding="utf-8"?>
<!-- Generator: Adobe Illustrator 21.0.2, SVG Export Plug-In . SVG Version: 6.00 Build 0)  -->
<svg version="1.1" id="Layer_1" xmlns="http://www.w3.org/2000/svg" xmlns:xlink="http://www.w3.org/1999/xlink" x="0px" y="0px"
	 viewBox="0 0 112.5 136" style="enable-background:new 0 0 112.5 136;" xml:space="preserve">
<style type="text/css">
	.st0{fill:#C5C7C9;}
	.st1{fill:#404041;}
	.st2{fill:#EC1C24;}
	.st3{fill-rule:evenodd;clip-rule:evenodd;fill:#FFFFFF;}
	.st4{fill-rule:evenodd;clip-rule:evenodd;}
	.st5{fill-rule:evenodd;clip-rule:evenodd;fill:#782B8F;}
	.st6{fill-rule:evenodd;clip-rule:evenodd;fill:#EC1C24;}
	.st7{fill:#FFFFFF;}
	.st8{fill:#EDE708;}
	.st9{fill:#B9131A;}
</style>
<path class="st0" d="M108.3,86.9c0.1-0.4,0.2-0.6,0.2-0.6l0.5-2.9c1.2-8.8-1.9-12.6-2.4-13.1l-0.4-0.5c-1.4-1.8-3.1-3.5-5.2-5
	c0.3-2.1-0.2-3.9-1.5-5.3c-1.5-1.6-3.6-2.9-5.3-3.9c-1.5-0.9-3.1-1.8-4.7-2.6h22.8v-36v-0.5l-2.4-1.1c-8.6-4.2-16.2-7.1-22.8-8.6
	c-5-1.2-10.6-2-16.9-2.5v0c-0.1,0-0.1,0-0.2,0c-0.4,0-0.9-0.1-1.4-0.1C68,4.1,67.3,4,66.5,4c-0.5,0-1,0-1.5-0.1
	c-0.8,0-1.6-0.1-2.4-0.1c-0.4,0-0.8,0-1.3,0c-1.3,0-2.5,0-3.8,0c-1.4,0-2.7,0-4,0.1v0c-0.4,0-0.7,0-1.1,0.1c-0.7,0-1.3,0.1-2,0.1
	c-0.3,0-0.6,0.1-0.9,0.1c-2.4,0.2-4.6,0.5-6.9,0.9c-0.4,0.1-0.8,0.1-1.1,0.2C41,5.3,40.5,5.4,40,5.5c-0.4,0.1-0.8,0.2-1.3,0.3
	c-0.5,0.1-1,0.3-1.5,0.4c-0.4,0.1-0.9,0.2-1.3,0.3C35.4,6.7,35,6.8,34.5,7c-0.4,0.1-0.9,0.3-1.3,0.4c-0.4,0.2-0.9,0.3-1.3,0.5
	C31.5,8,31,8.2,30.6,8.4c-0.4,0.2-0.8,0.3-1.3,0.5c-0.4,0.2-0.8,0.4-1.3,0.6c-0.4,0.2-0.8,0.4-1.2,0.6c-0.4,0.2-0.8,0.4-1.2,0.6
	c-0.4,0.2-0.8,0.4-1.1,0.6c-0.4,0.2-0.8,0.5-1.2,0.7c-0.4,0.2-0.7,0.4-1.1,0.6c-0.4,0.3-0.8,0.5-1.2,0.8c-0.3,0.2-0.7,0.4-1,0.6
	c-0.4,0.3-0.8,0.6-1.2,0.9c-0.3,0.2-0.6,0.4-0.9,0.6c-0.5,0.4-0.9,0.7-1.3,1.1c-0.2,0.2-0.5,0.4-0.7,0.6c-0.7,0.6-1.3,1.1-1.9,1.7
	c0,0,0,0,0,0c-2.1,2-3.9,4.1-5.5,6.3c-1,1.4-1.9,2.8-2.7,4.3c-0.7,1.3-1.4,2.7-1.9,4c-0.7,1.8-1.3,3.7-1.7,5.6
	c-0.3,1.1-0.5,2.4-0.7,3.8c-0.3,1.9-0.5,4-0.7,6.4c-0.1,1.2-0.2,2.5-0.3,3.8c-0.2,2.7-0.3,5.6-0.3,8.8c0,0.8,0,1.6,0,2.5
	c0,1.7,0,3.4,0,5.2v0l0,0c0,4,0,7.6,0.1,10.9c0.1,3.9,0.3,7.2,0.5,10c0.1,1.4,0.3,2.7,0.4,3.8c0.1,0.8,0.2,1.5,0.3,2.1
	c0.3,1.9,0.7,3.8,1.2,5.6c0.3,1.2,0.7,2.4,1.1,3.5c1.4,4,3.3,7.6,5.7,10.8c0.3,0.5,0.7,0.9,1,1.4c0.5,0.7,1.1,1.3,1.7,2
	c0.6,0.6,1.1,1.2,1.8,1.8c0,0,0,0,0,0c0.5,0.5,1.1,1,1.7,1.5c0,0,0.1,0.1,0.1,0.1c0.2,0.2,0.4,0.3,0.6,0.5c0.4,0.3,0.7,0.6,1.1,0.9
	c0.1,0.1,0.2,0.2,0.3,0.2c0.2,0.2,0.4,0.3,0.7,0.5c0.3,0.2,0.6,0.4,0.9,0.6c0.2,0.1,0.3,0.2,0.5,0.3c0.2,0.1,0.4,0.3,0.7,0.4
	c0.3,0.2,0.5,0.3,0.8,0.5c0.2,0.1,0.5,0.3,0.7,0.4c0.2,0.1,0.4,0.3,0.7,0.4c0.2,0.1,0.4,0.2,0.6,0.3c0.3,0.2,0.6,0.4,1,0.5
	c0.2,0.1,0.4,0.2,0.6,0.3c0.2,0.1,0.3,0.1,0.5,0.2c0.4,0.2,0.8,0.4,1.2,0.6c0.4,0.2,0.8,0.3,1.2,0.5c0.4,0.2,0.8,0.3,1.2,0.5
	c0.1,0,0.2,0.1,0.2,0.1c0.3,0.1,0.7,0.3,1,0.4c0.4,0.1,0.7,0.3,1.1,0.4c0.1,0,0.2,0.1,0.2,0.1c0.4,0.1,0.9,0.3,1.3,0.4
	c0.4,0.1,0.9,0.3,1.4,0.4c0.4,0.1,0.9,0.3,1.4,0.4c0.5,0.1,0.9,0.2,1.4,0.4c0.5,0.1,0.9,0.2,1.4,0.3c0.5,0.1,0.9,0.2,1.4,0.3
	c0.5,0.1,1,0.2,1.5,0.3c0.5,0.1,1,0.2,1.4,0.2c0.5,0.1,1,0.2,1.6,0.2c0.5,0.1,1,0.1,1.4,0.2c0.6,0.1,1.1,0.1,1.7,0.2
	c0.3,0,0.5,0,0.8,0.1c1.3,0.1,2.7,0.2,4.1,0.3c0.4,0,0.9,0.1,1.3,0.1v0c1.3,0,2.5,0.1,3.8,0.1c12.1,0,22.1-0.7,29.7-2.1
	c7.7-1.4,15.5-4,23.1-7.6l2.4-1.1v-18.5V86.9L108.3,86.9z M58.3,102.7c-0.2,0-0.5,0-0.7,0c-0.5,0-0.9-0.1-1.4-0.1
	c-0.3,0-0.5-0.1-0.8-0.1c-0.4-0.1-0.8-0.1-1.2-0.2c-0.3,0-0.5-0.1-0.8-0.1c-0.3-0.1-0.6-0.1-0.9-0.2c-0.1,0-0.2,0-0.3-0.1
	c-0.2-0.1-0.4-0.1-0.6-0.2c0,0-0.1,0-0.1,0c-0.3-0.1-0.6-0.2-0.9-0.3c-0.2-0.1-0.3-0.1-0.5-0.2c-0.2-0.1-0.3-0.1-0.5-0.2
	c-0.2-0.1-0.4-0.2-0.6-0.3c-0.1,0-0.2-0.1-0.2-0.1c-0.2-0.1-0.4-0.2-0.6-0.3c-0.2-0.1-0.5-0.3-0.7-0.4c-0.2-0.1-0.4-0.2-0.5-0.3
	c-0.1-0.1-0.2-0.1-0.3-0.2c-0.2-0.1-0.4-0.3-0.6-0.4c-0.1,0-0.1-0.1-0.2-0.1c-0.1,0-0.1-0.1-0.2-0.1c-0.1-0.1-0.3-0.2-0.4-0.3
	c-0.1-0.1-0.1-0.1-0.2-0.2c5.2-0.9,13.3-1.1,22.7,3.1c0.7,0.3,1.4,0.6,2.1,0.9c-0.9,0.1-1.9,0.2-3,0.3c-0.1,0-0.2,0-0.3,0
	c-0.4,0-0.7,0-1.1,0.1c-0.1,0-0.3,0-0.4,0c-0.3,0-0.7,0-1.1,0c-0.2,0-0.4,0-0.5,0c-0.4,0-0.7,0-1.1,0c-0.2,0-0.3,0-0.5,0
	c-0.6,0-1.1,0-1.7,0C59.8,102.8,59,102.8,58.3,102.7z M65.6,44.1c-1.3-0.3-2.7-0.6-4.1-0.8c0-0.1,0-0.2,0-0.3c0,0.1-0.1,0.2-0.1,0.3
	c-0.5-0.1-0.9-0.2-1.4-0.2c-3.5-3.5-7-5-10.6-4.3c-1.9,0.4-3.8,1.4-5.4,3c-0.2,0-0.4,0-0.6,0c0.1-0.1,0.2-0.3,0.3-0.4
	c0.1-0.1,0.2-0.3,0.3-0.4c0.2-0.2,0.3-0.4,0.5-0.6c0.1-0.1,0.3-0.3,0.4-0.4c0.2-0.2,0.4-0.3,0.5-0.5c0.1-0.1,0.3-0.2,0.4-0.4
	c0.2-0.1,0.3-0.2,0.5-0.3c0,0,0.1-0.1,0.1-0.1c0.2-0.1,0.3-0.2,0.5-0.3c0.3-0.2,0.5-0.3,0.8-0.4c0.2-0.1,0.5-0.2,0.7-0.3
	c0.3-0.1,0.6-0.3,0.9-0.4c0.2-0.1,0.4-0.1,0.7-0.2c0.3-0.1,0.5-0.2,0.8-0.2c0.2-0.1,0.5-0.1,0.8-0.2c0.3-0.1,0.5-0.1,0.8-0.2
	c0.3-0.1,0.5-0.1,0.8-0.1c1.7-0.3,3.6-0.4,5.8-0.4c0.7,0,1.5,0,2.2,0c0.2,0,0.4,0,0.5,0c0.7,0,1.3,0,2,0c0.1,0,0.2,0,0.2,0
	c0.6,0,1.1,0,1.7,0.1c0.2,0,0.4,0,0.6,0c0.5,0,1,0.1,1.5,0.1c0.2,0,0.4,0,0.5,0c0.4,0,0.8,0.1,1.2,0.1c0.2,0,0.4,0,0.6,0.1
	c1.7,0.2,3.1,0.4,4.4,0.6l0.8,3.6c-1.8-0.5-3.6-0.5-5.3,0.2C68.2,41.2,66.7,42.4,65.6,44.1z"/>
<path d="M78.1,99c-3.4,1.4-9.3,2.1-17.5,2.1c-14.1,0-21.1-5.9-21.5-18.1c-0.4-13-0.4-25.4,0-36.8c0.4-11.2,6.8-16.4,20-16.4
	c7.7,0,13.4,0.5,17.1,1.4l3.6,15.8h30.4V14l-1.2-0.6c-8.4-4.1-16-6.9-22.4-8.4c-8-1.9-17.8-2.9-29.2-2.9C39.6,2.1,25.4,7,15.4,16.7
	c-5.8,5.6-9.6,12-11.2,19.2c-1.4,5.8-2.1,15.7-2.1,30c0,12.7,0.5,21.4,1.4,26.5c1.6,9.9,5.7,17.9,11.9,23.9
	c9.5,9.1,23.6,13.7,41.9,13.7c12,0,21.9-0.7,29.3-2.1c7.5-1.4,15.1-3.9,22.5-7.4l1.2-0.6V85.3l-28.1,0.2L78.1,99z"/>
<path d="M78.1,99c-3.4,1.4-9.3,2.1-17.5,2.1c-14.1,0-21.1-5.9-21.5-18.1c-0.4-13-0.4-25.4,0-36.8c0.4-11.2,6.8-16.4,20-16.4
	c7.7,0,13.4,0.5,17.1,1.4l3.6,15.8h30.4V14l-1.2-0.6c-8.4-4.1-16-6.9-22.4-8.4c-8-1.9-17.8-2.9-29.2-2.9C39.6,2.1,25.4,7,15.4,16.7
	c-5.8,5.6-9.6,12-11.2,19.2c-1.4,5.8-2.1,15.7-2.1,30c0,12.7,0.5,21.4,1.4,26.5c1.6,9.9,5.7,17.9,11.9,23.9
	c9.5,9.1,23.6,13.7,41.9,13.7c12,0,21.9-0.7,29.3-2.1c7.5-1.4,15.1-3.9,22.5-7.4l1.2-0.6V85.3l-28.1,0.2L78.1,99z"/>
<path class="st1" d="M107.8,15.8L91.8,26c0,0-5.6-9.5-30-9.5s-31.9,8.7-31.9,8.7s-9.2,8.8-9.2,18.8L5.5,36.6c0,0,2.4-13,11.8-20.7
	S43,2,53,2.3s36.1,2.3,46.3,6.9"/>
<polyline class="st1" points="83.1,88.2 93.6,102.3 108.6,87.2 82.1,86.8 "/>
<path class="st2" d="M57.3,132.2c-18.9,0-33.5-4.8-43.4-14.3c-6.6-6.3-10.8-14.8-12.5-25.1C0.5,87.6,0,78.8,0,65.9
	c0-14.5,0.7-24.5,2.1-30.5C3.9,27.8,7.9,21,13.9,15.2C24.4,5.1,39,0,57.5,0C69,0,79,1,87.2,3c6.5,1.5,14.2,4.4,22.8,8.6l2.4,1.1
	v36.5H78.1l-3.7-16.1C70.9,32.3,65.7,32,59,32c-12.2,0-17.6,4.3-17.9,14.4c-0.4,11.3-0.4,23.7,0,36.7c0.4,10.9,6.5,16,19.4,16
	c8.7,0,13.3-0.8,15.8-1.6l4.4-14l31.7-0.2v38.2l-2.4,1.1c-7.6,3.6-15.4,6.2-23.1,7.6C79.4,131.5,69.4,132.2,57.3,132.2z M57.5,4.2
	c-17.4,0-31,4.7-40.7,14c-5.5,5.3-9.1,11.4-10.6,18.2c-1.4,5.7-2,15.4-2,29.5c0,12.6,0.4,21.2,1.3,26.1c1.6,9.4,5.4,17.1,11.3,22.8
	c9.1,8.7,22.7,13.2,40.5,13.2c11.9,0,21.6-0.7,28.9-2c7.3-1.3,14.7-3.8,22-7.3V87.4l-24.5,0.2l-4.1,13l-0.9,0.4
	c-3.7,1.5-9.7,2.3-18.3,2.3c-15.2,0-23.2-6.8-23.6-20.1c-0.4-13.1-0.4-25.5,0-37c0.5-12.4,7.7-18.4,22.1-18.4
	c7.9,0,13.8,0.5,17.7,1.5l1.2,0.3L81.5,45h26.7V15.3c-8.3-4-15.7-6.8-21.9-8.3C78.3,5.1,68.7,4.2,57.5,4.2z"/>
<path class="st3" d="M59.5,43.7c0.3-0.1,0.5-0.5,0.7-0.9c0.2,0.8,0,1.5-0.4,2c-0.2-0.1-0.3-0.3-0.5-0.4C59.4,44.2,59.5,44,59.5,43.7
	"/>
<path d="M53.1,100.4c-9.1-1.9-13.7-7.6-14.1-17.4c-0.4-13-0.4-25.4,0-36.8c0.3-9.3,4.8-14.5,14.1-16V2.2C37.2,3,24.6,7.8,15.4,16.7
	c-5.8,5.6-9.6,12-11.2,19.2c-1.4,5.8-2.1,15.7-2.1,30c0,12.7,0.5,21.4,1.4,26.5c1.6,9.9,5.7,17.9,11.9,23.9
	c8.7,8.4,21.4,13,37.7,13.7V100.4z"/>
<g>
	<path class="st2" d="M36.9,46.2c-0.4,11.4-0.4,23.9,0,37c0.4,11.1,5.9,17.6,16.6,19.5v-4.2c-8.1-1.7-12.1-6.7-12.4-15.4
		c-0.4-13-0.4-25.3,0-36.7c0.3-8.4,4.1-12.8,12.4-14v-4.2C42.7,29.6,37.3,35.5,36.9,46.2z"/>
	<path class="st2" d="M53.5,127.9c-15.9-0.6-28.3-5-36.7-13.1c-5.9-5.7-9.7-13.4-11.3-22.8c-0.9-5-1.3-13.5-1.3-26.1
		c0-14.2,0.7-23.8,2-29.5c1.6-6.8,5.1-12.9,10.6-18.2C25.7,9.6,38,4.9,53.5,4.3V0.1C36.9,0.8,23.6,5.8,13.9,15.2
		C7.9,21,3.9,27.8,2.1,35.4c-1.4,6-2.1,16-2.1,30.5c0,12.9,0.5,21.7,1.4,26.9c1.7,10.3,5.9,18.7,12.5,25.1
		c9.2,8.9,22.5,13.6,39.6,14.3V127.9z"/>
</g>
<path class="st3" d="M60.6,40.3c0.3-0.2,0.6-0.6,0.8-1c0.2,0.9,0,1.7-0.4,2.3c-0.2-0.2-0.4-0.3-0.6-0.5
	C60.5,40.8,60.6,40.6,60.6,40.3"/>
<g>
	<g>
		<path class="st4" d="M68.6,96.7c7.7,3.4,13.4,5.5,16.2,3.7c2.8-1.8,4.8-3.8,7.8-2.9c1.4,0.4,3.3,0.4,4.8-0.2
			c2.3-0.8,5-2.1,6.4-5.4c1.7-3.8,3.6-9.6,3.6-9.6l0,0c2.4-10.9-1.6-15-1.6-15l-0.4-0.6c-1.5-2-3.4-3.7-5.5-5.2
			c0.4-1.8,0.3-3.5-1.2-5.1c-1.3-1.5-3.4-2.7-5.1-3.7c-2.2-1.3-4.4-2.5-6.6-3.7c-0.9-0.5-1.7-0.9-2.6-1.4c-1.3-2.9-3-5.7-5.4-7.7
			c-2.4-2.1-5.6-3.2-8.8-2.1c-1.9,0.7-3.3,2.1-4.2,3.7c-2.2-0.5-4.4-0.9-6.7-1.3c-2.6-2.7-5.9-5-9.9-4.3c-2.1,0.4-3.8,1.5-5.2,3
			c0,0-14.2-1.5-35.8,6.1c1.4,0,31.7,3.6,18.9,55.4c1.5-1.4,6-2.7,11.6-5.1C39,95.4,51.8,89.2,68.6,96.7z"/>
		<path class="st5" d="M8.5,45.1C8.5,45.1,8.5,45.1,8.5,45.1C8.5,45.1,8.5,45.1,8.5,45.1z"/>
		<path class="st2" d="M90.1,63.9c-0.8-0.4-0.2-1.4,3.6-3.5c-11.7-6.7-23.3-13.3-34.9-12.5c0.3,0.9,0.5,1.8,0.3,2.8
			c-2-3.6-6.5-9.8-8.8-8.3c-3.9,2.2-4.9,10.3-0.8,18.7c-0.3,0.6-0.5,1.3-0.8,1.9c-3-3.1-4.6-11.2-3.7-16.1
			c-4.3-0.7-10.2-0.7-16.8,0.8c2,1.7,3.8,3.7,5.3,6.1c4.9,0.8,9,1.9,9.8,4.1c-1.7-1.3-5,0.2-7.5,0.4c0.2,0.4,0.3,0.8,0.4,1.2
			c0.6,1.3,1.1,2.7,1.3,4.2c-0.1-0.1-0.1-0.2-0.2-0.3c0.6,3.1,0.8,6.7,0.4,10.7c0,0.1,0,0.3,0,0.4c1.8-2.2,4.8-3.5,9.1-3.8
			c0.8-1.6,2.2-3.2,3.8-4.6c-4.6,8.4-4.5,12.9-1.7,16.5c1.4,1.9,4.6,3.7,5.9,5c-0.9-2.7-1.4-5.6-2.7-8.1c0.1,0.1,0.2,0.1,0.3,0.2
			c1.9-0.9,4.5-3.4,10.5,1c0.9,0.6,3,5.2,4,5.6c1.4-4.6,1.8-5.1,7.7-6.6c-2.2-5.5,0.7-10.6,7.9-11c3.8-0.2,8.8,1.2,15,3.8
			c0.9-0.5,1.7-1.1,2.6-1.6C97.3,68,94,65.4,90.1,63.9z"/>
		<path class="st6" d="M78.6,50.1c-1.4-0.5-2.7-1-4.1-1.5c-0.5-1.2-1-2.4-0.5-3.2c-1.1,1-1.1,1.8-1.1,2.6c-0.7-0.3-1.3-0.5-2-0.8
			C73.2,42,75.9,45.4,78.6,50.1"/>
		<g>
			<path class="st7" d="M64.3,49.8c4.5,0.6,8.6,2.5,8.6,2.5s0,0.1,2,0.3c1.9,0.2,5.3,1.5,5.3,1.5l-1.1-1.5
				c-6.8-3.1-13.5-5.1-20.2-4.7c0.1,0.4,0.3,0.8,0.3,1.2C59.9,49.2,61.5,49.4,64.3,49.8z"/>
			<path class="st7" d="M31,50.3c2.1-0.5,4.9-0.9,7.6-1.1c3.3-0.2,5.2-0.1,6.3,0.1c0-0.8,0.1-1.6,0.2-2.3
				c-4.3-0.7-10.2-0.7-16.8,0.8C29.3,48.6,30.1,49.4,31,50.3z"/>
		</g>
		<path class="st3" d="M85.3,60c0,0,0.8,0.6,1.1,1.7c0.3,1.2-0.4,2-0.4,2s0.5,0.5,1.5,2.1c0.9,1.6,1.2,2.3,1.2,2.3s-2.9-2.4-7.9-2.7
			c-5-0.3-9.6,1.1-9.6,1.1l0.2-2l-2.6,1.3c0,0-0.4-6,2.9-8c3.3-2,8,0.2,9.8,1.1c1.7,0.9,3.1,2.5,3.1,2.5l-0.1-1.9L85.3,60z"/>
		<path class="st4" d="M85.3,63.9c1,0.9,1.7,1.9,2.4,2.9c-3.4-3.1-9.1-2.2-14.5-1.9c-1.1,0.1-0.8-0.9,0.4-2.8
			c-1,0.7-2.1,1.4-3.1,2.1c2.6-5.6,6.3-9.1,13.7-1.8c1,0,1.1-0.7,0.9-1.8C86.2,61.7,86.3,63.1,85.3,63.9"/>
		<path class="st3" d="M96.2,76.8c-3.1-2.8-6.9-7.9-12.3-4.8c2,0.7,4,1.4,6,2.1c-2.6,0.3-5,0-7.3-0.8c-0.4,0.4-0.5,0.8-0.6,1.2
			c2.6,1.2,5.8,1.5,8.7,2.2c-3.1,0.6-6.3,0.6-9.4-0.3c-0.4,0.6-0.3,1.5,0,2.1c3.4,0.5,6.6,0.6,9-0.1c-1.5,1.3-4.8,1.9-8.7,2.3
			c0.3,1.1,0.8,2.2,1.4,2.1c3.8-0.9,7.7-1.7,11.5-2.6C95.4,79,95.9,78,96.2,76.8"/>
		<path class="st3" d="M97.6,77.6c1.5-0.7,2.5-2.5,3.4-4.6c0.8,4-0.1,7.3-1.9,10.1c-0.7-0.7-1.5-1.4-2.5-2
			C97,80,97.4,78.8,97.6,77.6"/>
		<path class="st4" d="M84.3,58.7c-1.1-2.4-3.5-3.7-6.7-4.2C79.8,55.9,82,57.3,84.3,58.7"/>
		<path class="st4" d="M54.1,54.6c-0.7-2-1.3-4-1.3-6.2C51.9,49,51.4,49.5,51,50c-0.1-2.1,0.2-4,0.6-5.8c-3.2,2.7-3.4,8.1-1.2,15.6
			C51.1,58,52.4,56.3,54.1,54.6"/>
		<path class="st8" d="M43.3,77.5c-2.2,0.4-3.9,1-5.3,1.7c-0.3,0.7-0.7,1.4-1.2,2.3c-0.3,1.4-0.7,2.9-1.2,4.4
			c1.9-1.9,4.5-3.4,7.5-4.8C43,79.9,43.1,78.7,43.3,77.5z"/>
		<path class="st4" d="M81.2,63.3c-1.1-2.8-4.6-2.7-5.6,0.3C77.3,63.2,79.2,63.1,81.2,63.3"/>
		<g>
			<path class="st3" d="M83.1,85.8l7.6-1.2l3.5-0.9l2.9,2.6c0,0-8.6,8.5-14.4,5C78.8,88.9,83.1,85.8,83.1,85.8z"/>
			<path class="st3" d="M97.1,86.3c0,0-0.1,4-3.2,4c-2.1,0-2.4,0.1-4.2,1c-1.8,0.9-6.5-1.5-6.5-1.5"/>
		</g>
		<path class="st9" d="M43.2,81c-0.2-1.1-0.1-2.3,0.1-3.5c-2.2,0.4-3.9,1-5.3,1.7c-0.3,0.7-0.7,1.4-1.2,2.3
			c-0.3,1.4-0.7,2.9-1.2,4.4C37.5,84,40.1,82.4,43.2,81z"/>
		<path class="st9" d="M53.2,81.4c-0.2-0.6-0.5-1.2-0.8-1.8c0.1,0.1,0.2,0.1,0.3,0.2c0,0,3-1.6,9,4c5.3,4.9,7.5,6,12.9,6.4
			c-0.3-3.4,1.9-5.4,3.4-6.4c-4.4-3-3.9-8.2-3.7-9.6c0.9-3,3.7-5.2,8.4-5.5c2.5-0.1,5.5,0.4,9.1,1.6l-6.4-5.6l-3.3,0l3.2,3.1
			c0,0-4.7-0.1-8.3,1.1c-3.7,1.2-4.5,1.6-4.5,1.6l-2.3-4.1l-0.8,1.8c0,0-3.6-1.6-4.1-2.6c-0.4-1,3.1-3.9,3.1-3.9l-3.8,0.7
			c0,0,3.4-4.5,3-6.5c-0.5-2-8.4-3.5-8.4-3.5l-3.8,0.9l2-2.1c0,0-2.6-4.1-3.9-5.3c-1.3-1.2-1.9-1.6-1.9-1.6s-1.3,2.2-1.6,4
			c-0.3,1.8,0.3,4.7,0.3,4.7l0.3,2.9l0,2.2l-1.3,2.7c0.1,0.1,0.1,0.3,0.2,0.4c-0.3,0.6-0.5,1.3-0.8,1.9c-0.4-0.4-0.9-1-1.2-1.7
			c-1.5-0.5-3.9-1.2-5.9-1.5c-3.1-0.3-3.3-0.5-3.3-0.5s1.9-0.9,4-1c2.1-0.1,3,0,3,0s-2.4-3.8-7.3-4.8c-2.1-0.4-3.7-0.6-4.9-0.7
			c0.2,0.3,0.4,0.5,0.6,0.8c4.9,0.8,9,1.9,9.8,4.1c-1.7-1.3-5,0.2-7.5,0.4c0.2,0.4,0.3,0.8,0.4,1.2c0.6,1.3,1.1,2.7,1.3,4.2
			c-0.1-0.1-0.1-0.2-0.2-0.3c0.6,3.2,0.8,6.7,0.4,10.7c0,0.1,0,0.3,0,0.4c1.8-2.2,4.8-3.5,9.1-3.8c0.8-1.6,2.2-3.2,3.8-4.6
			c-4.6,8.4-4.5,12.9-1.7,16.5c1.4,1.9,4.6,3.7,5.9,5c-0.3-0.9-0.5-1.7-0.8-2.6L53.2,81.4z"/>
		<path class="st7" d="M50.9,66.2c0,0-4.9,7.2-3.6,12.9s6.4,6.4,7.8,8.6c0,0-1.7-6.7-2.4-7.9c0,0,3.6-0.7,7.6,3
			c4.1,3.7,8.1,7.8,14.2,7.4c0,0,0.1-4.3,3.4-6.4c0,0-2-1.4-2.7-3c0,0-2.6,3-3.4,5.3c0,0-6.6-2.9-9.8-6.2s-11.4-3.3-11.4-3.3
			S48.7,72.4,50.9,66.2z"/>
		<path class="st4" d="M52.4,79.6c0,0-0.1,9,6.5,11.5c6.6,2.5,1.5-5.5,1.5-5.5S60.9,80,52.4,79.6z"/>
	</g>
	<path class="st2" d="M33.7,98.6c1.7-0.7,3.6-1.4,5.8-2.3c0.1-0.1,12.6-5.9,28.8,1.3c8.7,3.9,14,5.6,17.2,3.6c0.5-0.3,1-0.7,1.5-1
		c2-1.4,3.4-2.4,5.5-1.8c1.4,0.4,3.6,0.5,5.4-0.3c2.4-0.8,5.4-2.3,7-5.9c1.6-3.8,3.6-9.6,3.7-9.6l0.5-2.9c1.2-8.8-1.9-12.6-2.4-13.1
		l-0.4-0.5c-1.4-1.8-3.1-3.5-5.2-5c0.3-2.1-0.2-3.9-1.5-5.3c-1.5-1.6-3.6-2.9-5.3-3.9c-1.9-1.1-3.8-2.1-5.6-3.1l-1-0.5
		c-0.8-0.4-1.5-0.8-2.3-1.3c-1.5-3.3-3.4-5.9-5.5-7.8c-3.1-2.6-6.6-3.4-9.8-2.3c-1.8,0.6-3.3,1.9-4.4,3.5c-1.8-0.4-3.7-0.8-5.7-1.1
		c-3.5-3.5-7-5-10.6-4.3c-1.9,0.4-3.8,1.4-5.4,3c-2.8-0.2-16.2-0.7-35.8,6.2l-4.3,1.5l4.5,0.5c0.9,0.1,9.4,1.2,15.3,9.6
		c6.7,9.6,7.6,24.5,2.7,44.5l-0.4,1.6 M106.5,82c-0.2,0.7-2.1,5.9-3.6,9.4c-1.3,2.9-3.6,4.1-5.8,4.8c-1.3,0.6-3,0.5-4.1,0.2
		c-3-0.8-5,0.6-7.2,2.1c-0.5,0.3-0.9,0.6-1.4,1c-2.6,1.7-9.3-1-15.3-3.7c-6.5-2.9-12.5-3.8-17.3-3.8c-7.8,0-12.8,2.3-13.1,2.5
		c-2.1,0.9-4,1.6-5.6,2.3c-1.6,0.6-2.9,1.1-4,1.6c4.4-19.4,3.2-34.1-3.6-43.8c-4.2-5.9-9.5-8.5-13.1-9.7c19.2-6.1,31.8-4.9,32-4.9
		l0.5,0.1l0.3-0.4c1.4-1.5,2.9-2.4,4.6-2.7c2.9-0.5,5.9,0.8,9,4l0.2,0.2l0.3,0.1c2.3,0.4,4.5,0.8,6.6,1.3l0.8,0.2L67,42
		c0.9-1.6,2.1-2.7,3.7-3.3c2.5-0.9,5.3-0.2,7.8,1.9c2,1.7,3.7,4.2,5.1,7.4l0.1,0.3l0.3,0.2c0.9,0.5,1.7,1,2.6,1.4l1,0.5
		c1.8,1,3.7,2,5.6,3.1c1.6,0.9,3.6,2.1,4.8,3.5c1,1.1,1.3,2.5,0.9,4.2l-0.2,0.7l0.6,0.4c2.2,1.5,3.9,3.2,5.3,5l0.4,0.6l0.1,0.1
		C105.2,68,108.7,71.9,106.5,82z"/>
</g>
<path d="M58.5,29.9c4.6,0,8.6,0.2,11.8,0.5V2.6C66.1,2.3,61.7,2.1,57,2.1C39.1,2.1,24.9,7,14.9,16.7c-5.8,5.6-9.6,12-11.2,19.2
	c-1.4,5.8-2.1,15.7-2.1,30c0,12.7,0.5,21.4,1.4,26.5c1.6,9.9,5.7,17.9,11.9,23.9c8.1,7.8,19.6,12.3,34.3,13.4V99.5
	c-6.9-2.5-10.4-7.9-10.7-16.4c-0.4-13-0.4-25.4,0-36.8C38.9,35.1,45.2,29.9,58.5,29.9z"/>
<path class="st1" d="M107.8,15.8L91.8,26c0,0-5.6-9.5-30-9.5s-31.9,8.7-31.9,8.7s-9.2,8.8-9.2,18.8L5.5,36.6c0,0,2.4-13,11.8-20.7
	S43,2,53,2.3s36.1,2.3,46.3,6.9"/>
<g>
	<path class="st2" d="M59,32c4.4,0,8.2,0.2,11.3,0.5v-4.2c-3.1-0.3-6.9-0.5-11.3-0.5c-14.4,0-21.7,6-22.1,18.4
		c-0.4,11.4-0.4,23.9,0,37c0.3,9.5,4.4,15.6,12.2,18.4V97c-5.2-2.4-7.8-7-8.1-14c-0.4-13-0.4-25.3,0-36.7C41.5,36.3,46.8,32,59,32z"
		/>
	<path class="st2" d="M5.5,92.1c-0.9-5-1.3-13.5-1.3-26.1c0-14.2,0.7-23.8,2-29.5c1.6-6.8,5.1-12.9,10.6-18.2
		c9.6-9.3,23.3-14,40.7-14c4.5,0,8.8,0.2,12.8,0.5V0.5C66.3,0.2,62,0,57.5,0C39,0,24.4,5.1,13.9,15.2C7.9,21,3.9,27.8,2.1,35.4
		c-1.4,6-2.1,16-2.1,30.5c0,12.9,0.5,21.7,1.4,26.9c1.7,10.3,5.9,18.7,12.5,25.1c8.4,8.1,20.2,12.8,35.2,14v-4.2
		c-13.8-1.2-24.7-5.5-32.3-12.8C10.9,109.2,7.1,101.5,5.5,92.1z"/>
</g>
<path d="M108.1,29.4"/>
<path class="st1" d="M36.4,85.5H20.1c0,0,0.2,17.1,14.2,25s34.6,5.5,34.6,5.5s15.6-0.1,23.8-7.2c-0.2-0.2-13.5-7.7-13.5-7.7
	s-20.7,1.1-20.9,1.1s-17.3-7.3-18.6-11"/>
<g>
	<path class="st2" d="M60.5,103.2c8.6,0,14.6-0.7,18.3-2.3l0.9-0.4l0-0.1l-7.1-1.9l-0.5-0.2c-2.7,0.4-6.5,0.7-11.6,0.7
		c-11.2,0-17.4-3.9-19-12.1l-4.5-1.6C38.3,97.2,46.2,103.2,60.5,103.2z"/>
	<path class="st2" d="M108.3,105.4v13.3c-7.3,3.5-14.7,5.9-22,7.3c-7.3,1.3-17.1,2-28.9,2c-17.8,0-31.4-4.4-40.5-13.2
		c-5.9-5.7-9.7-13.4-11.3-22.8c-0.9-5-1.3-13.5-1.3-26.1c0-14.2,0.7-23.8,2-29.5c1.6-6.8,5.1-12.9,10.6-18.2
		c9.6-9.3,23.3-14,40.7-14c11.2,0,20.8,1,28.7,2.9c6.3,1.5,13.6,4.2,21.9,8.3v1.8c1.5-1.4,3-2.8,4.2-4v-0.5l-2.4-1.1
		C101.4,7.4,93.7,4.5,87.2,3C79,1,69,0,57.5,0C39,0,24.4,5.1,13.9,15.2C7.9,21,3.9,27.8,2.1,35.4c-1.4,6-2.1,16-2.1,30.5
		c0,12.9,0.5,21.7,1.4,26.9c1.7,10.3,5.9,18.7,12.5,25.1c9.9,9.5,24.5,14.3,43.4,14.3c12.1,0,22.1-0.7,29.7-2.1
		c7.7-1.4,15.5-4,23.1-7.6l2.4-1.1v-18.5C110.8,104,109.3,104.9,108.3,105.4z"/>
</g>
<path class="st2" d="M70.3,98.6c0,0,7.9,3.3,10.6,3.4c2.6,0.1,3.6-1.3,3.6-1.3"/>
</svg>
