<?xml version="1.0" encoding="utf-8"?>
<!-- Generator: Adobe Illustrator 21.0.2, SVG Export Plug-In . SVG Version: 6.00 Build 0)  -->
<svg version="1.1" id="Layer_1" xmlns="http://www.w3.org/2000/svg" xmlns:xlink="http://www.w3.org/1999/xlink" x="0px" y="0px"
	 viewBox="0 0 314.9 159.3" style="enable-background:new 0 0 314.9 159.3;" xml:space="preserve">
<style type="text/css">
	.st0{fill:#EC1C24;}
	.st1{fill-rule:evenodd;clip-rule:evenodd;fill:#FFFFFF;}
	.st2{fill-rule:evenodd;clip-rule:evenodd;}
	.st3{fill-rule:evenodd;clip-rule:evenodd;fill:#782B8F;}
	.st4{fill-rule:evenodd;clip-rule:evenodd;fill:#EC1C24;}
	.st5{fill:#FFFFFF;}
	.st6{fill:#EDE708;}
	.st7{fill:#B9131A;}
	.st8{fill:#C5C7C9;}
</style>
<g>
	<path d="M32.1,159h-4v-1.7l0.6-0.2l-0.2-0.6H26l-0.2,0.6l0.6,0.2v1.7h-3.9v-1.7l0.8-0.2l2.6-7.8h2.8l2.5,7.8l0.8,0.2V159z
		 M27.9,154.6l-0.2-0.5c-0.2-1-0.4-1.8-0.5-2.6h-0.1c-0.3,1.5-0.5,2.4-0.5,2.6l-0.2,0.5H27.9z"/>
	<path class="st0" d="M51.1,152.5h-2l-0.4-1.4c-0.4-0.1-0.8-0.2-1.3-0.2c-1.1,0-1.7,0.2-1.7,0.7c0,0.3,0.2,0.5,0.6,0.7
		c0.1,0.1,0.9,0.3,2.3,0.7c1.3,0.4,2.2,0.8,2.6,1.4c0.4,0.5,0.6,1.1,0.6,1.9c0,1-0.3,1.7-0.9,2.1c-0.7,0.5-1.8,0.8-3.5,0.8
		c-1.8,0-3.2-0.4-4.2-1.1l0-2.7h2l0.3,1.3c0.4,0.3,1,0.4,1.8,0.4c0.7,0,1.1-0.1,1.4-0.2c0.2-0.1,0.3-0.3,0.3-0.5
		c0-0.3-0.2-0.6-0.6-0.8c-0.3-0.1-0.8-0.3-1.8-0.6c-1.4-0.4-2.4-0.8-2.8-1.1c-0.5-0.4-0.8-1.1-0.8-2.1c0-1.2,0.5-2,1.5-2.4
		c0.6-0.3,1.5-0.4,2.7-0.4c0.9,0,1.7,0.1,2.5,0.4c0.5,0.2,1,0.4,1.3,0.6L51.1,152.5z"/>
	<path class="st0" d="M55.5,157c0.3-0.3,0.6-0.4,1-0.4c0.4,0,0.7,0.1,1,0.4c0.3,0.3,0.4,0.6,0.4,1c0,0.4-0.1,0.7-0.4,1
		c-0.3,0.3-0.6,0.4-1,0.4c-0.4,0-0.7-0.1-1-0.4c-0.3-0.3-0.4-0.6-0.4-1C55.1,157.6,55.2,157.2,55.5,157z"/>
	<path class="st0" d="M63.1,152.8h-1.9v-3.6H71v3.6h-1.9l-0.2-1.6h-1.6v5.9l0.9,0.2v1.7H64v-1.7l0.9-0.2v-5.9h-1.6L63.1,152.8z"/>
	<path class="st0" d="M74.8,157c0.3-0.3,0.6-0.4,1-0.4c0.4,0,0.7,0.1,1,0.4c0.3,0.3,0.4,0.6,0.4,1c0,0.4-0.1,0.7-0.4,1
		c-0.3,0.3-0.6,0.4-1,0.4c-0.4,0-0.7-0.1-1-0.4c-0.3-0.3-0.4-0.6-0.4-1C74.3,157.6,74.5,157.2,74.8,157z"/>
	<path class="st0" d="M86.4,151.2h-2.6v2h1.3l0.3-0.5h1.4v2.7h-1.4l-0.3-0.5h-1.3v2.1h2.6l0.3-1h2v3h-8.3v-1.7l0.9-0.2v-5.9
		l-0.8-0.2v-1.7h8.1v3h-2L86.4,151.2z"/>
	<path class="st0" d="M92.6,157c0.3-0.3,0.6-0.4,1-0.4c0.4,0,0.7,0.1,1,0.4c0.3,0.3,0.4,0.6,0.4,1c0,0.4-0.1,0.7-0.4,1
		c-0.3,0.3-0.6,0.4-1,0.4c-0.4,0-0.7-0.1-1-0.4c-0.3-0.3-0.4-0.6-0.4-1C92.1,157.6,92.3,157.2,92.6,157z"/>
	<path class="st0" d="M107.9,159h-4v-1.7l0.6-0.2l-0.2-0.6h-2.5l-0.2,0.6l0.6,0.2v1.7h-3.9v-1.7l0.8-0.2l2.6-7.8h2.8l2.5,7.8
		l0.8,0.2V159z M103.7,154.6l-0.2-0.5c-0.2-1-0.4-1.8-0.5-2.6H103c-0.3,1.5-0.5,2.4-0.5,2.6l-0.2,0.5H103.7z"/>
	<path class="st0" d="M111.6,157c0.3-0.3,0.6-0.4,1-0.4c0.4,0,0.7,0.1,1,0.4c0.3,0.3,0.4,0.6,0.4,1c0,0.4-0.1,0.7-0.4,1
		c-0.3,0.3-0.6,0.4-1,0.4c-0.4,0-0.7-0.1-1-0.4c-0.3-0.3-0.4-0.6-0.4-1C111.2,157.6,111.3,157.2,111.6,157z"/>
	<path class="st0" d="M125.7,149.2h3.3v1.7l-0.8,0.2v5.9l0.9,0.2v1.7H125v-1.7l0.9-0.2l0-0.8l0.2-2.8l-0.1,0
		c-0.5,1.1-1.2,2.3-1.8,3.6h-1.7c-1-1.9-1.6-3.1-1.8-3.6l-0.1,0c0.1,1.7,0.1,2.6,0.1,2.8l0,0.8l0.9,0.2v1.7h-4.2v-1.7l0.9-0.2v-5.9
		l-0.8-0.2v-1.7h3.2l2.5,4.9h0.1L125.7,149.2z"/>
	<path d="M148.7,149.2h3.3v1.7l-0.8,0.2v5.9l0.9,0.2v1.7H148v-1.7l0.9-0.2l0-0.8l0.2-2.8l-0.1,0c-0.5,1.1-1.2,2.3-1.8,3.6h-1.7
		c-1-1.9-1.6-3.1-1.8-3.6l-0.1,0c0.1,1.7,0.1,2.6,0.1,2.8l0,0.8l0.9,0.2v1.7h-4.2v-1.7l0.9-0.2v-5.9l-0.8-0.2v-1.7h3.2l2.5,4.9h0.1
		L148.7,149.2z"/>
	<path d="M155.5,159v-1.7l0.9-0.2v-5.9l-0.8-0.2v-1.7h4v1.7l-0.8,0.2v5.9l0.9,0.2v1.7H155.5z"/>
	<path d="M171.4,150.3c0.5,0.4,0.8,0.9,0.9,1.4c0.1,0.4,0.2,1.2,0.2,2.3c0,1.1-0.1,1.9-0.2,2.4c-0.1,0.6-0.4,1.1-0.9,1.5
		c-0.8,0.7-1.9,1-3.5,1h-4.7v-1.7l1.1-0.2v-5.9l-0.8-0.2v-1.7h4.5C169.4,149.2,170.6,149.6,171.4,150.3z M166.8,157.1h0.9
		c0.7,0,1.2-0.1,1.5-0.3c0.4-0.2,0.6-0.6,0.6-1.2c0-1.1,0-2.1,0-2.9c0-0.5-0.2-0.9-0.6-1.2s-0.8-0.4-1.4-0.4h-1.1L166.8,157.1z"/>
	<path d="M184,150.3c0.5,0.4,0.8,0.9,0.9,1.4c0.1,0.4,0.2,1.2,0.2,2.3c0,1.1-0.1,1.9-0.2,2.4c-0.1,0.6-0.4,1.1-0.9,1.5
		c-0.8,0.7-1.9,1-3.5,1h-4.7v-1.7l1.1-0.2v-5.9l-0.8-0.2v-1.7h4.5C182,149.2,183.2,149.6,184,150.3z M179.4,157.1h0.9
		c0.7,0,1.2-0.1,1.5-0.3c0.4-0.2,0.6-0.6,0.6-1.2c0-1.1,0-2.1,0-2.9c0-0.5-0.2-0.9-0.6-1.2s-0.8-0.4-1.4-0.4h-1.1L179.4,157.1z"/>
	<path d="M189.3,151.2l-0.8-0.2v-1.7h4v1.7l-0.8,0.2l0,5.8h2.3l0.6-1.6h1.8v3.7h-8v-1.7l0.9-0.2V151.2z"/>
	<path d="M205.8,151.2h-2.6v2h1.3l0.3-0.5h1.4v2.7h-1.4l-0.3-0.5h-1.3v2.1h2.6l0.3-1h2v3h-8.3v-1.7l0.9-0.2v-5.9L200,151v-1.7h8.1v3
		h-2L205.8,151.2z"/>
	<path d="M227.3,152.5h-2l-0.4-1.4c-0.4-0.1-0.8-0.2-1.3-0.2c-1.1,0-1.7,0.2-1.7,0.7c0,0.3,0.2,0.5,0.6,0.7c0.1,0.1,0.9,0.3,2.3,0.7
		c1.3,0.4,2.2,0.8,2.6,1.4c0.4,0.5,0.6,1.1,0.6,1.9c0,1-0.3,1.7-0.9,2.1c-0.7,0.5-1.8,0.8-3.5,0.8c-1.8,0-3.2-0.4-4.2-1.1l0-2.7h2
		l0.3,1.3c0.4,0.3,1,0.4,1.8,0.4c0.7,0,1.1-0.1,1.4-0.2c0.2-0.1,0.3-0.3,0.3-0.5c0-0.3-0.2-0.6-0.6-0.8c-0.3-0.1-0.8-0.3-1.8-0.6
		c-1.4-0.4-2.4-0.8-2.8-1.1c-0.5-0.4-0.8-1.1-0.8-2.1c0-1.2,0.5-2,1.5-2.4c0.6-0.3,1.5-0.4,2.7-0.4c0.9,0,1.7,0.1,2.5,0.4
		c0.5,0.2,1,0.4,1.3,0.6L227.3,152.5z"/>
	<path d="M231.3,156.3c-0.1-0.4-0.1-1.1-0.1-2.2c0-1.2,0.1-2,0.2-2.4c0.1-0.6,0.4-1.1,0.9-1.5c0.8-0.8,1.9-1.2,3.4-1.2
		c0.9,0,1.7,0.1,2.4,0.2c0.5,0.1,1.1,0.3,1.8,0.7v2.4h-2.2l-0.3-1.3c-0.3-0.1-0.8-0.2-1.6-0.2c-1.2,0-1.8,0.5-1.8,1.5c0,0.9,0,2,0,3
		c0,1.1,0.7,1.7,1.9,1.7c0.8,0,1.3-0.1,1.6-0.2l0.3-1.1l2,0v2.6c-0.6,0.3-1.2,0.5-1.8,0.6c-0.6,0.1-1.4,0.2-2.4,0.2
		c-1.5,0-2.6-0.4-3.3-1.1C231.8,157.7,231.5,157,231.3,156.3z"/>
	<path d="M249.1,159v-1.7l0.9-0.2l0-2.1h-3.5v2.1l0.9,0.2v1.7h-4.2v-1.7l0.9-0.2v-5.9l-0.8-0.2v-1.7h4v1.7l-0.8,0.2v1.9h3.5v-1.9
		l-0.8-0.2v-1.7h4v1.7l-0.8,0.2v5.9l0.9,0.2v1.7H249.1z"/>
	<path d="M256.8,156.3c-0.1-0.4-0.1-1.1-0.1-2.2c0-1.2,0.1-2,0.2-2.4c0.1-0.6,0.4-1.1,0.9-1.5c0.8-0.8,2-1.2,3.7-1.2
		s2.9,0.4,3.7,1.2c0.5,0.4,0.8,0.9,0.9,1.5c0.1,0.5,0.2,1.3,0.2,2.4c0,1,0,1.8-0.1,2.2c-0.1,0.8-0.5,1.4-0.9,1.9
		c-0.8,0.7-2,1.1-3.7,1.1c-1.7,0-2.9-0.4-3.7-1.1C257.2,157.7,256.9,157,256.8,156.3z M259.4,154.1c0,0.7,0,1.3,0.1,1.7
		c0.1,0.9,0.7,1.4,2,1.4c1.3,0,1.9-0.5,2-1.4c0-0.7,0.1-1.3,0.1-1.7c0-0.4,0-1,0-1.7c0-0.5-0.2-0.8-0.6-1.1s-0.8-0.4-1.4-0.4
		s-1.1,0.1-1.4,0.4s-0.6,0.6-0.6,1.1C259.4,152.9,259.4,153.5,259.4,154.1z"/>
	<path d="M269.6,156.3c-0.1-0.4-0.1-1.1-0.1-2.2c0-1.2,0.1-2,0.2-2.4c0.1-0.6,0.4-1.1,0.9-1.5c0.8-0.8,2-1.2,3.7-1.2
		s2.9,0.4,3.7,1.2c0.5,0.4,0.8,0.9,0.9,1.5c0.1,0.5,0.2,1.3,0.2,2.4c0,1,0,1.8-0.1,2.2c-0.1,0.8-0.5,1.4-0.9,1.9
		c-0.8,0.7-2,1.1-3.7,1.1c-1.7,0-2.9-0.4-3.7-1.1C270.1,157.7,269.7,157,269.6,156.3z M272.2,154.1c0,0.7,0,1.3,0.1,1.7
		c0.1,0.9,0.7,1.4,2,1.4c1.3,0,1.9-0.5,2-1.4c0-0.7,0.1-1.3,0.1-1.7c0-0.4,0-1,0-1.7c0-0.5-0.2-0.8-0.6-1.1s-0.8-0.4-1.4-0.4
		s-1.1,0.1-1.4,0.4s-0.6,0.6-0.6,1.1C272.2,152.9,272.2,153.5,272.2,154.1z"/>
	<path d="M283.2,151.2l-0.8-0.2v-1.7h4v1.7l-0.8,0.2l0,5.8h2.3l0.6-1.6h1.8v3.7h-8v-1.7l0.9-0.2V151.2z"/>
</g>
<g>
	<path class="st1" d="M164.7,52.2c0.4-0.2,0.7-0.7,0.9-1.3c0.2,1.1,0,2-0.5,2.8c-0.2-0.2-0.4-0.4-0.7-0.6
		C164.6,52.8,164.7,52.5,164.7,52.2"/>
	<g>
		<path class="st2" d="M171.9,74.4c9.3,4.1,16.1,6.6,19.5,4.4c3.4-2.2,5.7-4.6,9.4-3.5c1.7,0.5,4,0.5,5.8-0.3c2.8-1,6-2.5,7.7-6.4
			c2-4.6,4.4-11.5,4.4-11.5l0,0c2.9-13.1-2-18.1-2-18.1l-0.5-0.7c-1.9-2.4-4.1-4.5-6.6-6.2c0.5-2.1,0.3-4.3-1.4-6.1
			c-1.6-1.8-4-3.2-6.1-4.4c-2.6-1.5-5.3-3-7.9-4.4c-1-0.6-2.1-1.1-3.1-1.7c-1.5-3.4-3.7-6.9-6.5-9.3c-2.9-2.5-6.8-3.9-10.6-2.5
			c-2.3,0.8-4,2.5-5.1,4.5c-2.6-0.6-5.3-1.1-8-1.5c-3.1-3.2-7.2-6-11.9-5.1c-2.5,0.5-4.5,1.8-6.2,3.6c0,0-17.1-1.8-43.1,7.3
			c1.7,0,38.1,4.3,22.7,66.6c1.8-1.7,7.2-3.2,13.9-6.1C136.3,72.8,151.7,65.4,171.9,74.4z"/>
		<path class="st3" d="M99.6,12.4C99.6,12.4,99.7,12.3,99.6,12.4C99.6,12.3,99.6,12.3,99.6,12.4z"/>
		<path class="st0" d="M197.7,35c-1-0.5-0.2-1.7,4.3-4.2c-14-8.1-28-16-41.9-15.1c0.4,1.1,0.6,2.2,0.4,3.4
			c-2.4-4.4-7.8-11.8-10.6-10c-4.7,2.7-5.9,12.4-0.9,22.5c-0.3,0.8-0.6,1.6-1,2.3c-3.6-3.7-5.5-13.5-4.4-19.4
			c-5.2-0.8-12.2-0.8-20.2,0.9c2.4,2,4.6,4.5,6.4,7.3c5.9,1,10.8,2.3,11.8,5c-2.1-1.6-6,0.2-9,0.4c0.2,0.5,0.4,1,0.5,1.5
			c0.8,1.6,1.3,3.3,1.5,5.1c-0.1-0.1-0.2-0.3-0.3-0.4c0.8,3.8,1,8.1,0.5,12.9c0,0.2,0,0.3,0.1,0.5c2.2-2.6,5.8-4.2,10.9-4.5
			c1-1.9,2.6-3.8,4.5-5.6c-5.5,10.1-5.4,15.5-2.1,19.8c1.7,2.3,5.6,4.4,7.1,6c-1.1-3.3-1.7-6.7-3.2-9.8c0.1,0.1,0.2,0.2,0.3,0.2
			c2.3-1,5.5-4.1,12.6,1.2c1,0.8,3.6,6.3,4.8,6.7c1.7-5.5,2.2-6.1,9.2-7.9c-2.7-6.7,0.8-12.7,9.5-13.3c4.6-0.3,10.6,1.4,18,4.5
			c1-0.6,2.1-1.3,3.1-1.9C206.4,39.8,202.4,36.8,197.7,35z"/>
		<path class="st4" d="M183.9,18.4c-1.6-0.6-3.3-1.2-4.9-1.9c-0.6-1.4-1.2-2.8-0.6-3.9c-1.4,1.2-1.3,2.2-1.3,3.2
			c-0.8-0.3-1.6-0.6-2.4-1C177.3,8.7,180.6,12.7,183.9,18.4"/>
		<g>
			<path class="st5" d="M166.7,18c5.4,0.7,10.4,3.1,10.4,3.1s0,0.1,2.4,0.3c2.3,0.2,6.3,1.8,6.3,1.8l-1.4-1.8
				c-8.1-3.7-16.2-6.2-24.3-5.6c0.2,0.5,0.3,1,0.4,1.5C161.5,17.3,163.3,17.5,166.7,18z"/>
			<path class="st5" d="M126.6,18.6c2.5-0.5,5.8-1.1,9.2-1.3c3.9-0.2,6.3-0.1,7.6,0.1c0-1,0.1-1.9,0.3-2.7
				c-5.2-0.8-12.2-0.8-20.2,0.9C124.6,16.6,125.6,17.6,126.6,18.6z"/>
		</g>
		<path class="st1" d="M191.9,30.3c0,0,1,0.7,1.3,2.1c0.3,1.4-0.5,2.4-0.5,2.4s0.7,0.6,1.8,2.6c1.1,1.9,1.5,2.7,1.5,2.7
			s-3.5-2.9-9.5-3.3c-6-0.4-11.5,1.4-11.5,1.4l0.2-2.4l-3.1,1.6c0,0-0.5-7.2,3.5-9.6c4-2.4,9.7,0.3,11.7,1.3c2.1,1.1,3.7,3,3.7,3
			l-0.1-2.3L191.9,30.3z"/>
		<path class="st2" d="M191.9,34.9c1.2,1.1,2.1,2.3,2.9,3.5c-4-3.7-10.9-2.7-17.4-2.3c-1.3,0.2-0.9-1,0.4-3.3
			c-1.2,0.9-2.5,1.7-3.7,2.6c3.1-6.7,7.5-10.9,16.4-2.2c1.2,0,1.4-0.9,1.1-2.1C193,32.3,193.1,34,191.9,34.9"/>
		<path class="st1" d="M205.1,50.5c-3.7-3.3-8.3-9.5-14.7-5.7c2.4,0.8,4.8,1.7,7.2,2.5c-3.1,0.4-6,0-8.8-1c-0.4,0.4-0.7,0.9-0.7,1.5
			c3.1,1.4,7,1.8,10.5,2.7c-3.7,0.8-7.5,0.7-11.3-0.4c-0.4,0.8-0.4,1.9,0,2.5c4.1,0.6,7.9,0.8,10.9-0.1c-1.8,1.6-5.8,2.3-10.5,2.7
			c0.4,1.4,1,2.6,1.7,2.6c4.6-1,9.2-2.1,13.8-3.1C204,53.1,204.6,51.9,205.1,50.5"/>
		<path class="st1" d="M206.7,51.5c1.8-0.9,3-3,4.1-5.5c1,4.9-0.1,8.7-2.3,12.1c-0.9-0.8-1.9-1.7-3-2.4
			C206,54.3,206.4,52.9,206.7,51.5"/>
		<path class="st2" d="M190.8,28.7c-1.3-2.9-4.2-4.4-8-5.1C185.3,25.4,188,27.1,190.8,28.7"/>
		<path class="st2" d="M154.5,23.8c-0.8-2.4-1.5-4.9-1.6-7.4c-1.1,0.7-1.8,1.3-2.2,2c-0.1-2.5,0.2-4.8,0.7-7
			c-3.9,3.3-4.1,9.8-1.4,18.7C150.8,27.9,152.4,25.8,154.5,23.8"/>
		<path class="st6" d="M141.4,51.3c-2.7,0.5-4.7,1.2-6.3,2c-0.4,0.8-0.9,1.7-1.5,2.7c-0.4,1.7-0.9,3.5-1.4,5.3
			c2.2-2.2,5.4-4.1,9.1-5.8C141.1,54.2,141.2,52.8,141.4,51.3z"/>
		<path class="st2" d="M187,34.2c-1.3-3.4-5.6-3.3-6.8,0.3C182.3,34.1,184.6,34.1,187,34.2"/>
		<g>
			<path class="st1" d="M189.3,61.2l9.1-1.5l4.2-1l3.5,3.2c0,0-10.3,10.3-17.3,6C184.1,65,189.3,61.2,189.3,61.2z"/>
			<path class="st1" d="M206.2,61.9c0,0-0.1,4.8-3.8,4.8c-2.5,0-2.8,0.2-5.1,1.2c-2.2,1.1-7.8-1.9-7.8-1.9"/>
		</g>
		<path class="st7" d="M141.3,55.5c-0.2-1.3-0.1-2.8,0.2-4.2c-2.7,0.5-4.7,1.2-6.3,2c-0.4,0.8-0.9,1.7-1.5,2.7
			c-0.4,1.7-0.9,3.5-1.4,5.3C134.5,59.1,137.6,57.2,141.3,55.5z"/>
		<path class="st7" d="M153.3,56c-0.3-0.7-0.6-1.5-0.9-2.2c0.1,0.1,0.2,0.2,0.3,0.2c0,0,3.6-2,10.8,4.8c6.3,5.9,9.1,7.3,15.5,7.7
			c-0.3-4.1,2.2-6.5,4.1-7.6c-5.2-3.6-4.6-9.9-4.4-11.5c1-3.6,4.5-6.2,10.1-6.6c3-0.2,6.7,0.5,10.9,1.9L192,36l-3.9,0l3.9,3.7
			c0,0-5.6-0.1-10,1.3c-4.4,1.4-5.4,1.9-5.4,1.9l-2.8-5l-0.9,2.1c0,0-4.4-1.9-4.9-3.1c-0.5-1.2,3.8-4.7,3.8-4.7l-4.5,0.8
			c0,0,4.1-5.4,3.5-7.8c-0.6-2.4-10.1-4.2-10.1-4.2l-4.6,1.1l2.4-2.5c0,0-3.1-4.9-4.7-6.4c-1.6-1.5-2.3-1.9-2.3-1.9
			s-1.6,2.7-1.9,4.8c-0.3,2.1,0.4,5.7,0.4,5.7l0.4,3.5l0,2.7l-1.5,3.3c0.1,0.2,0.2,0.3,0.2,0.5c-0.3,0.8-0.6,1.6-1,2.3
			c-0.5-0.5-1-1.2-1.5-2c-1.8-0.6-4.7-1.5-7.1-1.8c-3.7-0.4-4-0.5-4-0.5s2.3-1,4.8-1.2c2.5-0.1,3.6,0,3.6,0s-2.8-4.6-8.7-5.8
			c-2.5-0.5-4.4-0.7-5.8-0.8c0.2,0.3,0.5,0.6,0.7,1c5.9,1,10.8,2.3,11.8,5c-2.1-1.6-6,0.2-9,0.4c0.2,0.5,0.4,1,0.5,1.5
			c0.8,1.6,1.3,3.3,1.5,5.1c-0.1-0.1-0.2-0.3-0.3-0.4c0.8,3.8,1,8.1,0.5,12.9c0,0.2,0,0.3,0.1,0.5c2.2-2.6,5.8-4.2,10.9-4.5
			c1-1.9,2.6-3.8,4.5-5.6c-5.5,10.1-5.4,15.5-2.1,19.8c1.7,2.3,5.6,4.4,7.1,6c-0.3-1-0.6-2.1-0.9-3.1L153.3,56z"/>
		<path class="st5" d="M150.6,37.8c0,0-5.8,8.6-4.3,15.5c1.6,6.9,7.7,7.7,9.3,10.4c0,0-2-8.1-2.9-9.6c0,0,4.3-0.9,9.2,3.6
			c4.9,4.5,9.8,9.4,17.1,8.9c0,0,0.1-5.2,4.1-7.6c0,0-2.5-1.7-3.3-3.6c0,0-3.2,3.5-4.1,6.4c0,0-8-3.5-11.7-7.5s-13.8-3.9-13.8-3.9
			S148,45.2,150.6,37.8z"/>
		<path class="st2" d="M152.4,53.9c0,0-0.1,10.8,7.8,13.8c7.9,3,1.8-6.6,1.8-6.6S162.6,54.3,152.4,53.9z"/>
	</g>
	<path class="st0" d="M129.9,76.7c2-0.8,4.4-1.7,6.9-2.8c0.1-0.1,15.1-7.1,34.6,1.6c10.5,4.7,16.9,6.7,20.7,4.3
		c0.6-0.4,1.2-0.8,1.8-1.2c2.4-1.7,4.1-2.9,6.6-2.2c1.7,0.5,4.3,0.6,6.5-0.3c2.9-1,6.5-2.7,8.4-7.1c2-4.6,4.4-11.5,4.4-11.6l0.6-3.5
		c1.5-10.5-2.3-15.1-2.8-15.8l-0.5-0.6c-1.6-2.1-3.7-4.2-6.2-6c0.4-2.5-0.2-4.6-1.8-6.4c-1.8-1.9-4.3-3.5-6.4-4.7
		c-2.2-1.3-4.5-2.6-6.8-3.8l-1.2-0.7c-0.9-0.5-1.8-1-2.8-1.5c-1.8-4-4.1-7.1-6.7-9.3c-3.7-3.1-8-4.1-11.8-2.7
		c-2.1,0.8-3.9,2.2-5.2,4.2c-2.2-0.5-4.5-0.9-6.8-1.3c-4.2-4.2-8.4-6-12.7-5.2c-2.3,0.4-4.5,1.6-6.5,3.6c-3.3-0.2-19.5-0.9-43,7.4
		L94.1,13l5.4,0.6c1.1,0.1,11.3,1.5,18.4,11.6c8.1,11.5,9.2,29.5,3.2,53.5l-0.5,1.9 M217.4,56.7c-0.3,0.8-2.5,7.1-4.3,11.3
		c-1.5,3.5-4.4,4.9-7,5.8c-1.6,0.7-3.7,0.6-5,0.2c-3.6-1-6,0.7-8.7,2.5c-0.6,0.4-1.1,0.8-1.7,1.2c-3.2,2-11.1-1.3-18.4-4.5
		c-7.9-3.5-15-4.6-20.8-4.6c-9.4,0-15.4,2.8-15.8,3c-2.5,1.1-4.8,2-6.8,2.7c-1.9,0.7-3.5,1.3-4.8,1.9c5.3-23.3,3.9-41-4.3-52.6
		c-5-7.1-11.5-10.3-15.7-11.6c23.1-7.4,38.3-5.9,38.4-5.9l0.6,0.1l0.4-0.4c1.7-1.8,3.5-2.9,5.5-3.3c3.5-0.6,7,0.9,10.8,4.8l0.3,0.3
		l0.4,0.1c2.7,0.4,5.4,0.9,7.9,1.5l0.9,0.2l0.4-0.8c1-1.9,2.5-3.2,4.4-3.9c3-1.1,6.4-0.2,9.4,2.3c2.4,2,4.5,5,6.2,8.8l0.2,0.4
		l0.4,0.2c1,0.6,2.1,1.2,3.1,1.7l1.2,0.7c2.2,1.2,4.5,2.4,6.7,3.7c1.9,1.1,4.3,2.5,5.8,4.2c1.2,1.4,1.6,3,1.1,5l-0.2,0.8l0.7,0.5
		c2.6,1.8,4.7,3.8,6.4,6l0.5,0.7l0.1,0.1C215.8,39.9,220.1,44.6,217.4,56.7z"/>
</g>
<path class="st8" d="M114.7,86.3"/>
<g>
	<g>
		<path d="M31,125.8c-1.4,0.6-3.7,0.8-7,0.8c-5.6,0-8.4-2.3-8.5-7.2c-0.2-5.2-0.2-10.1,0-14.6c0.2-4.4,2.7-6.5,7.9-6.5
			c3.1,0,5.3,0.2,6.8,0.6l1.4,6.3h12.1V92.1l-0.5-0.2c-3.3-1.6-6.3-2.8-8.9-3.3c-3.2-0.8-7.1-1.2-11.6-1.2c-7.1,0-12.7,1.9-16.7,5.8
			c-2.3,2.2-3.8,4.8-4.4,7.6c-0.6,2.3-0.8,6.2-0.8,11.9c0,5.1,0.2,8.5,0.5,10.5c0.7,3.9,2.2,7.1,4.7,9.5c3.8,3.6,9.4,5.5,16.6,5.5
			c4.8,0,8.7-0.3,11.6-0.8c3-0.5,6-1.5,8.9-2.9l0.5-0.2v-13.8l-11.1,0.1L31,125.8z"/>
		<polygon points="52.6,98.2 56.3,99.2 56.3,126.3 51.8,127.5 51.8,137.3 93.3,137.3 93.3,121.4 82.3,121.4 80.7,126.1 69.6,126.1 
			69.6,117.5 74.7,117.5 76.4,119.8 84.4,119.8 84.4,104.9 76.3,104.9 74.7,107.2 69.6,107.2 69.6,99.4 80.7,99.4 82.3,104.3 
			93.3,104.3 93.3,88.4 52.6,88.4 		"/>
		<path d="M131.6,98.2l3.9,1v3.8c0,3.4,0.3,7.8,0.8,13.2l-13.1-27.8h-21v9.8l3.7,1v27.1l-4.4,1.1v9.8h21.8v-9.8l-4.4-1.1v-8.5
			c0-2.8-0.2-6.4-0.6-10.6c2.4,5,7.1,14.8,14.5,29.7l0.2,0.5h15.8V99.2l3.7-1v-9.8h-20.9V98.2z"/>
		<polygon points="160.3,107.2 171.1,107.2 172.1,99.4 178.1,99.4 178.1,126.3 173.7,127.5 173.7,137.3 195.8,137.3 195.8,127.5 
			191.5,126.3 191.5,99.4 197.5,99.4 198.5,107.2 209.3,107.2 209.3,88.4 160.3,88.4 		"/>
		<polygon points="217.9,98.2 221.6,99.2 221.6,126.3 217.1,127.5 217.1,137.3 258.6,137.3 258.6,121.4 247.6,121.4 246,126.1 
			234.9,126.1 234.9,117.5 240,117.5 241.7,119.8 249.7,119.8 249.7,104.9 241.6,104.9 240,107.2 234.9,107.2 234.9,99.4 246,99.4 
			247.6,104.3 258.6,104.3 258.6,88.4 217.9,88.4 		"/>
		<path d="M309.6,126.7l-6.5-9.7c2.5-1.1,4.5-2.7,5.9-4.9c1.4-2.2,2.1-4.7,2.1-7.5V102c0-3.6-1.1-6.7-3.4-9.2
			c-2.6-2.9-6.3-4.4-10.9-4.4h-29.4v9.9l3.9,0.9v27.1l-4.6,1.1v9.8h22.7v-9.8l-4.6-1.1v-7.9h4.5l5.1,8.4l-2.4,0.7v9.8h21.9v-9.9
			L309.6,126.7z M285,98.4h7.7c2.9,0,4,0.6,4.3,1.1c0.2,0.3,0.6,1.3,0.6,3.9c0,2.6-0.4,3.5-0.6,3.8c-0.4,0.5-1.5,1.1-4.4,1.1H285
			L285,98.4z"/>
	</g>
	<g>
		<path class="st0" d="M22.7,139c-7.5,0-13.3-1.9-17.2-5.7c-2.6-2.5-4.3-5.9-5-10c-0.4-2.1-0.6-5.6-0.6-10.7c0-5.8,0.3-9.7,0.8-12.1
			c0.7-3,2.3-5.7,4.7-8c4.1-4,10-6,17.3-6c4.6,0,8.5,0.4,11.8,1.2c2.6,0.6,5.6,1.7,9,3.4l0.9,0.5v14.5H31l-1.5-6.4
			c-1.4-0.3-3.5-0.4-6.1-0.4c-4.8,0-7,1.7-7.1,5.7c-0.2,4.5-0.2,9.4,0,14.5c0.1,4.3,2.6,6.4,7.7,6.4c3.4,0,5.3-0.3,6.3-0.7l1.7-5.6
			l12.6-0.1v15.2l-0.9,0.5c-3,1.4-6.1,2.5-9.2,3C31.5,138.7,27.6,139,22.7,139z M22.8,88.2c-6.9,0-12.3,1.9-16.1,5.6
			c-2.2,2.1-3.6,4.5-4.2,7.2c-0.5,2.3-0.8,6.1-0.8,11.7c0,5,0.2,8.4,0.5,10.4c0.6,3.7,2.1,6.8,4.5,9c3.6,3.5,9,5.2,16.1,5.2
			c4.7,0,8.6-0.3,11.5-0.8c2.9-0.5,5.9-1.5,8.7-2.9v-12.5l-9.7,0.1l-1.6,5.2l-0.4,0.1c-1.5,0.6-3.9,0.9-7.3,0.9c-6,0-9.2-2.7-9.4-8
			c-0.2-5.2-0.2-10.1,0-14.7c0.2-4.9,3-7.3,8.8-7.3c3.1,0,5.5,0.2,7,0.6l0.5,0.1l1.4,6.1h10.6V92.6c-3.3-1.6-6.2-2.7-8.7-3.3
			C31.1,88.6,27.3,88.2,22.8,88.2z"/>
		<path class="st0" d="M94.2,138.1H51v-11.3l4.4-1.1V99.8l-3.7-1V87.5h42.4v17.6h-9v15.4h9V138.1z M52.7,136.5h39.8v-14.3h-9.6
			l-1.5,4.7H68.8v-10.2h6.3l1.7,2.3h6.8v-13.2h-6.8l-1.7,2.3h-6.3v-9.5h12.5l1.6,4.9h9.6V89.2H53.4v8.4l3.7,1V127l-4.4,1.1V136.5z
			 M70.5,125.2h9.7l1.5-4.7h-5.7l-1.7-2.3h-3.8V125.2z M70.5,106.4h3.8l1.7-2.3h5.4l-1.3-3.8h-9.6V106.4z"/>
		<path class="st0" d="M149.6,138.1h-17.1l-0.5-0.9c-5.7-11.6-9.9-20.1-12.6-25.7c0.2,2.4,0.2,4.5,0.2,6.3v7.9l4.4,1.1v11.3h-23.5
			v-11.3l4.4-1.1V99.8l-3.7-1V87.5h22.3l11.4,24.2c-0.3-3.4-0.4-6.3-0.4-8.7v-3.1l-3.9-1V87.5h22.6v11.3l-3.7,1V138.1z M133.5,136.5
			h14.5V98.6l3.7-1v-8.4h-19.3v8.4l3.9,1v4.4c0,3.4,0.3,7.8,0.8,13.1l0.4,4.7l-14.9-31.6H103v8.4l3.7,1V127l-4.4,1.1v8.4h20.2v-8.4
			L118,127v-9.2c0-2.8-0.2-6.3-0.6-10.6l-0.4-4.7l2,4.2C121.4,111.8,126.1,121.5,133.5,136.5L133.5,136.5z"/>
		<path class="st0" d="M196.7,138.1h-23.8v-11.3l4.4-1.1v-25.4h-4.4l-1,7.8h-12.4V87.5h50.6v20.5h-12.4l-1-7.8h-4.4v25.5l4.4,1.1
			V138.1z M174.5,136.5H195v-8.4l-4.4-1.1V98.6h7.6l1,7.8h9.2V89.2h-47.3v17.2h9.2l1-7.8h7.6V127l-4.4,1.1V136.5z"/>
		<path class="st0" d="M259.5,138.1h-43.2v-11.3l4.4-1.1V99.8l-3.7-1V87.5h42.4v17.6h-9v15.4h9V138.1z M218,136.5h39.8v-14.3h-9.6
			l-1.5,4.7h-12.5v-10.2h6.3l1.7,2.3h6.8v-13.2h-6.8l-1.7,2.3h-6.3v-9.5h12.5l1.6,4.9h9.6V89.2h-39.1v8.4l3.7,1V127l-4.4,1.1V136.5z
			 M235.8,125.2h9.7l1.5-4.7h-5.7l-1.7-2.3h-3.8V125.2z M235.8,106.4h3.8l1.7-2.3h5.4l-1.3-3.8h-9.6V106.4z"/>
		<path class="st0" d="M314.9,138.1h-23.5v-11.3l1.9-0.5l-4.3-7.1h-3.2v6.4l4.6,1.1v11.3h-24.4v-11.3l4.6-1.1V99.9l-3.9-0.9V87.5
			h30.2c4.9,0,8.8,1.6,11.5,4.7c2.4,2.7,3.6,5.9,3.6,9.7v2.6c0,2.9-0.8,5.6-2.3,7.9c-1.3,2.1-3.1,3.7-5.3,4.8l5.8,8.6l4.8,0.8V138.1
			z M293,136.5h20.2v-8.4l-4.1-0.7l-7.3-10.8l0.9-0.4c2.3-1,4.2-2.5,5.5-4.6c1.3-2.1,2-4.4,2-7V102c0-3.4-1.1-6.3-3.1-8.6
			c-2.4-2.8-5.9-4.2-10.3-4.2h-28.6v8.4l3.9,0.9V127l-4.6,1.1v8.4h21.1v-8.4l-4.6-1.1v-9.4h5.8l6,9.7l-2.8,0.8V136.5z M292.8,109.1
			h-8.6l0.1-11.5h8.6c2.6,0,4.3,0.5,5,1.4c0.5,0.8,0.8,2.2,0.8,4.4c0,2.2-0.2,3.6-0.7,4.3C297,108.6,295.4,109.1,292.8,109.1z
			 M285.8,107.4h7c2.9,0,3.6-0.6,3.7-0.8h0c0,0,0.4-0.6,0.4-3.2c0-2.7-0.4-3.3-0.4-3.4c0,0-0.7-0.8-3.7-0.8h-6.9L285.8,107.4z"/>
	</g>
</g>
</svg>
